<?xml version="1.0" encoding="utf-8"?>
<!-- Generator: Adobe Illustrator 27.0.0, SVG Export Plug-In . SVG Version: 6.00 Build 0)  -->
<svg version="1.1" id="图层_1" xmlns="http://www.w3.org/2000/svg" xmlns:xlink="http://www.w3.org/1999/xlink" x="0px" y="0px"
	 viewBox="0 0 640 640" style="enable-background:new 0 0 640 640;" xml:space="preserve">
<style type="text/css">
	.st0{fill:none;stroke:#000000;stroke-width:2;stroke-linecap:round;stroke-linejoin:round;stroke-miterlimit:10;}
</style>
<g>
	<g>
		<path class="st0" d="M210.7,338.25c-0.47,7.78-2.54,15.35-2.53,23.22c0.01,25.86,7.96,49.11,23.37,69.61
			c16.67,22.17,38.93,37.53,63.68,49.44c8.44,4.06,17.09,7.67,25.7,11.35c1.25,0.53,2.7-0.2,3.93-0.92
			c20.2-11.78,41.16-22.1,62.27-32.1c1.81-0.86,2.56-2.4,3.46-3.97c6.01-10.49,15.15-15.26,27.16-14.86c3.4,0.11,6.26-0.18,9.6-2.65
			c6.19-4.6,13.62-7.55,20.55-11.15c9.54-4.96,19.48-9.3,28.55-15c8.5-5.34,13.94-13.34,16.56-23.51
			c3.77-14.68,6.91-29.5,8.05-44.53c1.21-15.82,2.2-31.81-2.62-47.46c-1.24-4.02-0.37-8.47-1.45-12.85
			c-6.58-26.7-20.39-49.07-40.8-67.04c-22.2-19.53-48.5-30.64-77.98-33.63c-10.49-1.06-21.04-1.03-31.64,0.22
			c-6.49,0.76-12.85,2.21-19.27,2.94c-6.27,0.72-10.78,5.32-16.78,6.12c-9.09,1.21-17.45,4.54-25.71,8.37
			c-11.23,5.2-21.76,11.58-32.07,18.37c-0.72,0.48-0.95,1.66-1.53,2.41c-0.93,1.2-1.76,3-2.98,3.37
			c-13.21,3.98-20.48,15.21-28.92,24.5c-12.21,13.43-20.8,29.42-26.33,46.78c-5.77,18.14-7.99,36.71-6.59,55.83
			c1.52,20.86,7.37,40.45,17.07,58.71c7.98,15.01,18.7,28.12,31.38,39.71c18.2,16.65,38.92,29.12,61.38,38.9
			c6.11,2.66,12.49,4.69,18.76,6.96c2.96,1.08,4.78-0.3,5.93-2.96"/>
		<path class="st0" d="M393.53,348.13c4.56,5.31,10.17,9.59,14.38,15.28c7.36,9.95,10.54,21.17,8.66,33.12
			c-2.35,14.9-11.51,25.08-25.52,30.63c-10.58,4.19-21.46,4.64-32.07,0.45c-11.66-4.61-16.97-14.65-20.86-25.84
			c-2.27-6.54-1.98-13.48-3.88-20.04"/>
		<path class="st0" d="M174.63,190.01c-8.89-3.8-17.95-2.77-26.1,1.17c-13.42,6.48-21.98,13.85-29.84,26.67
			c8.41,9.96,16.83,19.99,25.32,29.96c6.21,7.29,12.55,14.47,18.75,21.77c2.41,2.84,4.57,3.57,7.46,0.51
			c8.47-8.96,15.66-18.77,20.42-30.2c0.96-2.31,1.21-4.92,1.79-7.39"/>
		<path class="st0" d="M472.1,279.94c6.18,5.76,9.79,12.5,7.9,21.25c-1.26,5.86-4.9,10.04-9.34,13.89
			c-10.38,9.01-22.79,13.72-35.61,17.77c-12.07,3.82-24.3,7.15-36.08,11.84c-12.06,4.8-24.41,8.99-35.58,15.8
			c-1.01,0.62-1.98,1.31-2.97,1.97"/>
		<path class="st0" d="M489.4,400.02c2.14,2.44,5.2,3.4,7.9,4.96c5.46,3.15,4.99,8.4,0.06,11.43
			c-11.34,6.96-23.27,12.76-35.14,18.68c-6.56,3.27-12.62,7.46-19.71,9.78c-4.86,1.59-8.96,2.03-12.95-1.79
			c-1.27-1.22-3.24-1.71-4.88-2.53"/>
		<path class="st0" d="M429.61,225.09c7.81,4.66,16.13,8.32,23.33,14.2c13.22,10.8,23.72,23.57,31.53,38.66
			c1.56,3.01,3.89,5.77,4.78,8.94c1.24,4.41,4.07,6.11,8.05,6.88"/>
		<path class="st0" d="M469.14,291.8c-1.08,4.73-5.7,3.52-8.46,4.22c-23.62,5.99-47.38,11.43-71.1,17.03"/>
		<path class="st0" d="M359.93,362.46c-8.65,5.75-16.96,11.99-25.4,18.01c-14.65,10.44-28.62,21.89-44.25,30.95
			c-9.83,5.69-19.63,11.14-31.14,12.87c-16.02,2.42-23.7-4.04-26.11-14.9c-0.56-2.51-2.69-5.43,0.41-7.89"/>
		<path class="st0" d="M433.56,447.45c-1.23,2.43-3.78,2.59-5.93,3.47c-13.57,5.56-26.41,12.41-36.45,23.33
			c-2.83,3.08-6.5,2.43-9.61,4.16c-16.1,8.95-32.51,17.32-48.83,25.86c-2.09,1.09-4.29,1.97-6.41,2.99
			c-2.91,1.39-5.64,1.64-8.43-0.47c-3.01-2.27-3.3-5.14-2.45-8.43c0.17-0.66,0.33-1.32,0.49-1.98"/>
		<path class="st0" d="M295.2,344.18c-6.28,1.63-11.87,4.93-17.76,7.48c-19.35,8.38-38.57,17.07-57.86,25.58
			c-0.53,0.23-1.46,0.36-1.96-0.45"/>
		<path class="st0" d="M288.78,327.38c-4.71-1.04-9.24,0.69-13.82,1.13c-10.42,1.02-20.76,2.91-31.15,4.28
			c-13.33,1.75-26.7,3.17-40,5.14c-1.83,0.27-3.32-0.72-4.97-0.17"/>
		<path class="st0" d="M448.38,446.46c3,2.53,2.27,5.07-0.54,6.84c-2.81,1.76-5.03,5.58-9.34,3.54c-17.2,5.4-33.42,12.5-44.88,27.25
			c-1.65,2.12-3.66,3.63-5.58,5.3c-0.99,0.86-2.62,1.12-3.88,0.05c-1.23-1.04-2.01-2.21-1.03-3.95c1.07-1.91,0.66-3.94,0.03-5.91"/>
		<path class="st0" d="M453.32,254.24c-15.48,9.22-31,18.39-46.44,27.69c-7.98,4.81-15.83,9.86-23.73,14.8"/>
		<path class="st0" d="M425.65,224.6c-6.86-3.38-14.41-4.81-21.75-5.2c-14.64-0.79-29.45-1.13-43.47,4.71"/>
		<path class="st0" d="M247.27,225.09c0.33,1.92-0.75,3.15-1.95,4.47c-7.6,8.31-9.19,18.6-8.24,29.12
			c0.71,7.8,2.98,15.43,6.16,22.78c6.43,14.86,25.3,24.11,40.58,19.17c4.4-1.42,8.73-2.99,12.55-6.14c2.01-1.66,2.78-2.88,2.8-5.16
			c0.09-11.17,11.2-21.42,23.74-20.05c14.06,1.53,20.29,12.1,20.12,22.52c-0.15,9.15-6.39,17.42-17.69,19.73
			c-10.61,2.16-20.17-3.5-23.74-11.81c-0.81-1.89-1.95-3.63-2.94-5.45"/>
		<path class="st0" d="M318.42,189.51c0.99,0.66,1.92,1.78,2.97,1.91c17.5,2.05,27.47,13.84,35.48,27.8
			c3.95,6.88,5.45,14.65,5.57,22.68c0.21,14.48-7.78,24.26-21.35,28.98c-2.01,0.7-3.56,1.82-5.37,2.65"/>
		<path class="st0" d="M303.6,358.51c-17.13,15.98-34.27,31.95-51.38,47.94c-1.55,1.44-3.26,2.79-3.96,4.93"/>
		<path class="st0" d="M434.05,218.17c-20.42,20.75-40.85,41.51-61.27,62.26"/>
		<path class="st0" d="M332.75,309.59c10.71,20.26,21.43,40.51,32.11,60.78c3.02,5.73,5.94,11.53,8.9,17.29"/>
		<path class="st0" d="M243.31,284.39c-15.23,12.77-24.22,29.53-30.59,47.95c-0.36,1.03-0.05,2.29-0.05,3.44"/>
		<path class="st0" d="M388.59,135.16c-0.16,0-0.38,0.07-0.49-0.01c-2.25-1.56-1.7-5.59-4.02-6.2c-3.24-0.85-6.86-0.21-10.32-0.21
			c-1.48,0-2.96,0-4.47,0c-0.84,1.91-2.18,3.66-1.86,6.68c-7.97-1.9-15.86-2.99-23.8-3.71"/>
		<path class="st0" d="M175.12,190.5c-3.04,5.72-5.01,11.83-3.86,18.27c1.62,9.07,7.55,15.09,15.19,19.84
			c7.04,4.38,14.4,3.6,21.76,1.85c8.45-2.01,14.1-8.08,16.55-15.83c2.15-6.82,1.62-14.47-1.79-21.12
			c-4.96-9.69-13.91-14.76-24.14-15c-8.09-0.19-16.27,2.8-21.76,10c-0.48,0.63-1.29,1.01-1.95,1.5"/>
		<path class="st0" d="M434.55,498.35c-1.97-4.73-5.92-8.35-7.56-13.27c1.73-3.16,5.38-4.35,6.7-7.93c1.47-3.99,0.53-6.65-3.59-6.95
			c-6.04-0.44-16.07,5.04-18.26,10.87c-0.54,1.44-1.12,2.97-0.02,4.44c1.8,2.4,4.58,2.49,6.88,1.84c2.84-0.8,5.47-1.98,8.44-0.85"/>
		<path class="st0" d="M316.45,268.57c-0.49-0.66-0.86-1.5-1.5-1.95c-8.98-6.22-12.28-16.26-17.37-25.17
			c-6.56-11.47-16.17-19.39-29.56-21.73c-3.48-0.61-7,0.21-10.37,1.4c-2.08,0.74-4.17,1.69-6.42,0.51"/>
		<path class="st0" d="M443.44,457.83c5.57,10.79,7.19,21.86,0.41,32.56c-8.03,12.67-23.33,14.58-35.99,9.46
			c-6.25-2.53-11.04-6.85-15.31-11.88"/>
		<path class="st0" d="M306.07,193.46c-0.77,1.78-1.99,3.25-3.47,4.43c-6.21,4.96-8.31,11.73-8.34,19.29
			c-0.02,4.29-0.64,8.63,0.89,12.87c0.59,1.64-0.42,3.31-0.93,4.92"/>
		<path class="st0" d="M368.33,136.14c1.8,1.32,3.98,2.2,5.23,4.75c-3.24,1.93-4.16,5.17-4.74,8.59
			c-1.38,8.04-6.37,11.19-14.3,12.29c-12.45,1.72-24.79,4.33-37.07,7.06c-15.37,3.41-29.75,9.61-44.06,16.09
			c-6.16,2.79-11.48,6.71-17.18,10.11c-1.32,0.79-2.64,1.02-4,1.41"/>
		<path class="st0" d="M237.88,197.91c1.82-0.1,3.03,1.05,4.48,1.92c4.88,2.94,9.14,0.49,9.3-5.38c0.09-3.54,1.73-6.58,2.76-10.18
			c-4.39-1.23-8.98-0.89-13.24-2.57c1.02-3.84,2.35-7.43,1.21-11.48c-2.42-8.56-8.39-11.68-18.82-10.73
			c-7.11,0.65-13.15,4.62-18.72,8.86c-2.46,1.87-5.49,3.32-7.05,6.2c0.35,1.13,1.43,1.88,1.05,3.1"/>
		<path class="st0" d="M389.09,140.59c0.17-3.29,0.34-6.59,0.5-9.83c4.06-1.72,7.64,0.71,11.32,1.58c1.76,0.41,2.98,2.37,2.3,4.8
			c-0.91,3.25-1.52,6.58-2.27,9.87c-0.77,3.39-1.55,6.77-2.35,10.29c-3.84,1.11-7.69,0.54-11.48,0.54
			c-5.7-0.01-11.28,0.65-16.8,2.02"/>
		<path class="st0" d="M263.08,144.54c7.41,11.04,14.82,22.07,22.24,33.11"/>
		<path class="st0" d="M299.65,140.1c-1.97-1.88-1.81-4.68-3.06-6.91c-10.18,0.88-46.02,14.39-60.22,22.74
			c0.02,1.63,1.17,3.27,0.04,4.92"/>
		<path class="st0" d="M366.36,132.19c-5.32-4.67-11.17-7.86-18.24-4.36c-4.77,2.36-9.15,5.5-14.25,8.62
			c3.08,2.94,3.69,6.27,3.76,9.59c0.14,6.25,4.21,9.88,8.56,13.22c0.86,0.66,1.45,1.57,2.37,2.1"/>
		<path class="st0" d="M322.38,133.67c-0.87-3.38-3.24-4.35-6.42-3.95c-4.62,0.57-9.24,1.15-13.96,1.74
			c-0.76,4.17-1.49,8.15-2.19,11.95c-5.22,1.23-10.22,2.51-14.98,4.59"/>
		<path class="st0" d="M297.18,266.1c-6.61-5-11.84-5.38-15.79-0.97c-3.06,3.41-2.22,7.77-2.49,11.84"/>
		<path class="st0" d="M336.21,246.34c-2.26,0.4-3.46-1.2-4.98-2.43c-3.08-2.49-6.6-3.06-10.34-1.52c-4.19,1.72-5.5,5.29-5.93,9.39
			c-0.19,1.81-0.33,3.62-0.5,5.44"/>
		<path class="st0" d="M339.18,132.19c-0.17-3.74-1.83-4.45-5.47-3.6c-3.61,0.85-7.79-0.72-10.84,2.61"/>
		<path class="st0" d="M299.65,144.05c2.14,5.76,4.54,11.45,6.32,17.33c0.91,3.01,2.02,5.92,3.07,8.86"/>
		<path class="st0" d="M387.6,459.31c-0.42,5.7-0.11,11.53-2.96,16.8"/>
		<path class="st0" d="M353.01,144.54c-2.53,5.38-1.94,11.13-1.98,16.8"/>
		<path class="st0" d="M244.3,201.37c-5,5.74-9.67,11.96-18.28,12.35"/>
		<path class="st0" d="M302.61,153.44c-4.99,0.86-9.21,3.65-13.84,5.44"/>
		<path class="st0" d="M148.44,215.21c9.08,0,10.37,1.24,10.89,10.38c0.06,0.99,0.31,1.98,0.48,2.97"/>
		<path class="st0" d="M307.06,260.17c-2.21,4.12-0.07,8.24,0,12.35"/>
		<path class="st0" d="M318.42,158.38c0.49,3.21,0.99,6.42,1.48,9.64"/>
		<path class="st0" d="M331.77,157.89c0.49,2.31,0.99,4.61,1.48,6.92"/>
		<path class="st0" d="M190.44,190.99c-6.67,2.44-8.38,7.98-3.99,12.39c2.35,2.36,5.81,2.85,8.91-0.05c2.57-2.4,2.88-7.61,0.46-9.81
			c-1.33-1.21-2.78-2.63-4.89-2.53"/>
	</g>
</g>
</svg>
